<?xml version="1.0" encoding="UTF-8"?><svg id="a" xmlns="http://www.w3.org/2000/svg" width="24" height="24" viewBox="0 0 24 24"><path d="M2,22.75c-.4141,0-.75-.3359-.75-.75s.3359-.75,.75-.75H22c.4141,0,.75,.3359,.75,.75s-.3359,.75-.75,.75H2ZM12,1.25c-.4141,0-.75,.3359-.75,.75V14.1895l-3.7197-3.7197c-.293-.293-.7676-.293-1.0605,0s-.293,.7676,0,1.0605l5,5c.1465,.1465,.3379,.2197,.5303,.2197s.3838-.0732,.5303-.2197l5-5c.293-.293,.293-.7676,0-1.0605s-.7676-.293-1.0605,0l-3.7197,3.7197V2c0-.4141-.3359-.75-.75-.75Z"/></svg>