<svg xmlns="http://www.w3.org/2000/svg" viewBox="0 0 291.41 81.13"><defs><style>.cls-1{fill:#fff;}.cls-2{fill:#b1c3cd;}.cls-3{fill:#30444e;}.cls-4{fill:#ae191d;}</style></defs><g id="Layer_2" data-name="Layer 2"><g id="Layer_1-2" data-name="Layer 1"><path class="cls-1" d="M233.5,65.32H18.1A18.12,18.12,0,0,1,0,47.22V18.1A18.12,18.12,0,0,1,18.1,0H233.5a18.12,18.12,0,0,1,18.1,18.1V47.22A18.12,18.12,0,0,1,233.5,65.32Z"/><path class="cls-2" d="M257.48,19.08h-5.87v-1A18.12,18.12,0,0,0,233.51,0H18.11A18.12,18.12,0,0,0,0,18.1V47.22a18.12,18.12,0,0,0,18.1,18.1h215.4a18.12,18.12,0,0,0,18.1-18.1v-1h5.87a3.45,3.45,0,0,0,3.58-3.3V22.38A3.45,3.45,0,0,0,257.48,19.08ZM245.6,47.22a12.12,12.12,0,0,1-12.1,12.1H18.1A12.12,12.12,0,0,1,6,47.22V18.1A12.12,12.12,0,0,1,18.1,6H233.5a12.12,12.12,0,0,1,12.1,12.1Z"/><path d="M39.06,27.68a7.85,7.85,0,0,0-5.88-2.6c-4.64,0-7.52,3.32-7.52,7.92,0,4.84,3.16,7.84,7.52,7.84a7.61,7.61,0,0,0,6.4-3.28l6.8,1.76a14.39,14.39,0,0,1-13.2,8.24A14.28,14.28,0,0,1,18.66,33,14.28,14.28,0,0,1,33.18,18.44,14.41,14.41,0,0,1,45.9,25.88Z"/><path d="M62.34,18.44A14.31,14.31,0,0,1,76.9,33a14.54,14.54,0,1,1-29.08,0A14.28,14.28,0,0,1,62.34,18.44Zm0,22.48c4.56,0,7.56-3.24,7.56-7.92s-3-7.92-7.56-7.92-7.52,3.2-7.52,7.92S57.82,40.92,62.34,40.92Z"/><path d="M105.86,19V47H99.54l-5.72-7.8c-2.56-3.52-6.32-8.84-6.36-8.84h0s0,4.32,0,10.44V47H80.74V19h6.32l6,8c1.8,2.4,6.08,8.44,6.12,8.44h0s0-5,0-10V19Z"/><path d="M111.74,47V19h6.72V47Z"/><path d="M140.74,42.6H129.66l-1.6,4.4h-7.24L132,19h6.36l11.2,28h-7.24Zm-2.16-5.88-2-5.44c-.6-1.6-1.32-4.12-1.36-4.12h0s-.76,2.52-1.36,4.12l-2,5.44Z"/><path d="M171.7,44.72c-1.64,1.76-4.84,2.84-7.6,2.84A14.28,14.28,0,0,1,149.58,33a14.55,14.55,0,0,1,27.24-7.12L170,27.68a7.91,7.91,0,0,0-5.88-2.6c-4.64,0-7.52,3.32-7.52,7.92,0,4.92,3.32,8,7.92,8s6.44-2.32,7.24-4.4v0h-7.36v-5.4h13.08V47H171.7c0-1.84,0-2.24,0-2.28Z"/><path d="M199.78,42.6H188.7L187.1,47h-7.24l11.2-28h6.36l11.2,28h-7.24Zm-2.16-5.88-2-5.44c-.6-1.6-1.32-4.12-1.36-4.12h0s-.76,2.52-1.36,4.12l-2,5.44Z"/><path d="M224.74,27.88a4.92,4.92,0,0,0-4.84-3.64c-2,0-3.16,1-3.16,2.12,0,1.84,2.8,2.52,6.2,3.76,4.16,1.52,8.52,3.88,8.52,8.68,0,5.12-4.4,8.76-10.92,8.76a12,12,0,0,1-11.84-8.48l6.44-1.72a6.07,6.07,0,0,0,5.68,4.24c2.4,0,3.52-1.12,3.52-2.48,0-2.24-3.28-2.8-7.28-4.32-3.36-1.28-7.24-3.12-7.24-8,0-4.36,4.4-8.32,10.48-8.32a11.13,11.13,0,0,1,10.92,7.68Z"/><path class="cls-3" d="M60.38,71.9h4.23a3.29,3.29,0,0,1,2.38.81,2.07,2.07,0,0,1,.62,1.55v0a2.11,2.11,0,0,1-1.2,2,2.22,2.22,0,0,1,1.7,2.24v0c0,1.66-1.35,2.5-3.41,2.5H60.37V71.9Zm5.24,2.69c0-.6-.47-.94-1.31-.94h-2v1.92h1.85c.88,0,1.44-.29,1.44-1v0Zm-1,2.65H62.34v2h2.38c.88,0,1.42-.31,1.42-1v0C66.13,77.62,65.67,77.24,64.65,77.24Z"/><path class="cls-3" d="M73.93,71.84h1.85L79.68,81H77.59l-.83-2H72.91l-.83,2H70ZM76,77.19l-1.21-3-1.21,3Z"/><path class="cls-3" d="M83.08,73.75H80.31V71.9h7.54v1.85H85.08V81h-2V73.75Z"/><path class="cls-3" d="M92.54,73.75H89.77V71.9h7.54v1.85H94.54V81h-2V73.75Z"/><path class="cls-3" d="M99.88,71.9h6.86v1.78h-4.88v1.85h4.29v1.78h-4.29v1.91h4.94V81H99.87V71.9Z"/><path class="cls-3" d="M109.63,71.9h4.16a3.65,3.65,0,0,1,2.65.92,2.85,2.85,0,0,1,.78,2.08v0a2.82,2.82,0,0,1-2,2.82L117.49,81h-2.34l-2-2.91h-1.57V81h-2V71.9Zm4,4.42c1,0,1.53-.52,1.53-1.29v0c0-.86-.6-1.3-1.57-1.3h-2v2.61h2Z"/><path class="cls-3" d="M122.3,77.41l-3.5-5.51h2.34l2.17,3.65,2.21-3.65h2.27l-3.5,5.47V81h-2V77.41Z"/><path class="cls-3" d="M135,71.9h2.16l2.39,3.85L142,71.9h2.16V81h-2V75.06L139.58,79h-.05L137,75.1V81h-2V71.9Z"/><path class="cls-3" d="M147.34,71.9h6.86v1.78h-4.88v1.85h4.29v1.78h-4.29v1.91h4.94V81h-6.93V71.9Z"/><path class="cls-3" d="M159.19,73.75h-2.77V71.9H164v1.85h-2.77V81h-2V73.75Z"/><path class="cls-3" d="M168.5,71.84h1.85l3.9,9.17h-2.09l-.83-2h-3.85l-.83,2h-2Zm2.11,5.35-1.21-3-1.21,3Z"/><path class="cls-3" d="M176.68,71.9h2v7.28h4.54V81h-6.54Z"/><path class="cls-3" d="M185.14,79.67l1.18-1.42A4.17,4.17,0,0,0,189,79.36c.82,0,1.31-.33,1.31-.86v0c0-.51-.31-.77-1.83-1.16-1.83-.47-3-1-3-2.78v0c0-1.65,1.33-2.74,3.19-2.74a5.26,5.26,0,0,1,3.38,1.16l-1,1.51a4.28,4.28,0,0,0-2.37-.9c-.77,0-1.17.35-1.17.79v0c0,.6.39.79,2,1.2,1.85.48,2.89,1.14,2.89,2.73v0c0,1.81-1.38,2.82-3.34,2.82A5.76,5.76,0,0,1,185.14,79.67Z"/><polygon class="cls-4" points="291.41 29.66 280.83 29.66 280.83 19.08 274.83 19.08 274.83 29.66 264.24 29.66 264.24 35.66 274.83 35.66 274.83 46.25 280.83 46.25 280.83 35.66 291.41 35.66 291.41 29.66"/></g></g></svg>